<mxfile host="app.diagrams.net" modified="2024-01-08T12:43:11.957Z" agent="Mozilla/5.0 (Windows NT 10.0; Win64; x64) AppleWebKit/537.36 (KHTML, like Gecko) Chrome/115.0.0.0 Safari/537.36" etag="i1UaHPt9B-iBwIuYGLtv" version="22.1.17" type="device">
  <diagram name="Page-1" id="j9NHxcDDXmFvk3k0Jfeg">
    <mxGraphModel dx="783" dy="659" grid="1" gridSize="10" guides="1" tooltips="1" connect="1" arrows="1" fold="1" page="1" pageScale="1" pageWidth="850" pageHeight="1100" math="0" shadow="0">
      <root>
        <mxCell id="0" />
        <mxCell id="1" parent="0" />
        <mxCell id="6ZfT8LfGju6U0OyFH9w5-1" value="Database Server" style="shape=cube;whiteSpace=wrap;html=1;boundedLbl=1;backgroundOutline=1;darkOpacity=0.05;darkOpacity2=0.1;rotation=0;" vertex="1" parent="1">
          <mxGeometry x="70" y="170" width="120" height="80" as="geometry" />
        </mxCell>
        <mxCell id="6ZfT8LfGju6U0OyFH9w5-8" style="edgeStyle=orthogonalEdgeStyle;rounded=0;orthogonalLoop=1;jettySize=auto;html=1;exitX=0;exitY=0;exitDx=165;exitDy=20;exitPerimeter=0;endArrow=none;endFill=0;" edge="1" parent="1" source="6ZfT8LfGju6U0OyFH9w5-2" target="6ZfT8LfGju6U0OyFH9w5-3">
          <mxGeometry relative="1" as="geometry" />
        </mxCell>
        <mxCell id="6ZfT8LfGju6U0OyFH9w5-2" value="Application Server" style="shape=cube;whiteSpace=wrap;html=1;boundedLbl=1;backgroundOutline=1;darkOpacity=0.05;darkOpacity2=0.1;rotation=0;" vertex="1" parent="1">
          <mxGeometry x="300" y="130" width="165" height="110" as="geometry" />
        </mxCell>
        <mxCell id="6ZfT8LfGju6U0OyFH9w5-3" value="Client" style="shape=cube;whiteSpace=wrap;html=1;boundedLbl=1;backgroundOutline=1;darkOpacity=0.05;darkOpacity2=0.1;rotation=0;size=10;" vertex="1" parent="1">
          <mxGeometry x="580" y="80" width="105" height="70" as="geometry" />
        </mxCell>
        <mxCell id="6ZfT8LfGju6U0OyFH9w5-4" value="Client" style="shape=cube;whiteSpace=wrap;html=1;boundedLbl=1;backgroundOutline=1;darkOpacity=0.05;darkOpacity2=0.1;rotation=0;size=10;" vertex="1" parent="1">
          <mxGeometry x="580" y="210" width="105" height="70" as="geometry" />
        </mxCell>
        <mxCell id="6ZfT8LfGju6U0OyFH9w5-5" value="Client" style="shape=cube;whiteSpace=wrap;html=1;boundedLbl=1;backgroundOutline=1;darkOpacity=0.05;darkOpacity2=0.1;rotation=0;size=10;" vertex="1" parent="1">
          <mxGeometry x="570" y="340" width="105" height="70" as="geometry" />
        </mxCell>
        <mxCell id="6ZfT8LfGju6U0OyFH9w5-7" style="edgeStyle=orthogonalEdgeStyle;rounded=0;orthogonalLoop=1;jettySize=auto;html=1;exitX=0;exitY=0;exitDx=120.00000000000001;exitDy=50;exitPerimeter=0;entryX=0;entryY=0;entryDx=0;entryDy=90;entryPerimeter=0;endArrow=none;endFill=0;" edge="1" parent="1" source="6ZfT8LfGju6U0OyFH9w5-1" target="6ZfT8LfGju6U0OyFH9w5-2">
          <mxGeometry relative="1" as="geometry" />
        </mxCell>
        <mxCell id="6ZfT8LfGju6U0OyFH9w5-11" value="&amp;lt;&amp;lt;LAN&amp;gt;." style="edgeLabel;html=1;align=center;verticalAlign=middle;resizable=0;points=[];" vertex="1" connectable="0" parent="6ZfT8LfGju6U0OyFH9w5-7">
          <mxGeometry x="-0.0416" y="2" relative="1" as="geometry">
            <mxPoint y="-18" as="offset" />
          </mxGeometry>
        </mxCell>
        <mxCell id="6ZfT8LfGju6U0OyFH9w5-9" style="edgeStyle=orthogonalEdgeStyle;rounded=0;orthogonalLoop=1;jettySize=auto;html=1;exitX=0;exitY=0;exitDx=165;exitDy=65;exitPerimeter=0;entryX=0;entryY=0;entryDx=0;entryDy=30;entryPerimeter=0;endArrow=none;endFill=0;" edge="1" parent="1" source="6ZfT8LfGju6U0OyFH9w5-2" target="6ZfT8LfGju6U0OyFH9w5-4">
          <mxGeometry relative="1" as="geometry" />
        </mxCell>
        <mxCell id="6ZfT8LfGju6U0OyFH9w5-10" style="edgeStyle=orthogonalEdgeStyle;rounded=0;orthogonalLoop=1;jettySize=auto;html=1;exitX=1;exitY=1;exitDx=0;exitDy=0;exitPerimeter=0;entryX=0;entryY=0;entryDx=0;entryDy=0;entryPerimeter=0;endArrow=none;endFill=0;" edge="1" parent="1" source="6ZfT8LfGju6U0OyFH9w5-2" target="6ZfT8LfGju6U0OyFH9w5-5">
          <mxGeometry relative="1" as="geometry" />
        </mxCell>
      </root>
    </mxGraphModel>
  </diagram>
</mxfile>
